<svg width="39" height="45" viewBox="0 0 39 45" fill="none" xmlns="http://www.w3.org/2000/svg">
<path fill-rule="evenodd" clip-rule="evenodd" d="M23.6914 27.7895H14.8071V17.3684H7.94907V27.7895C7.94907 27.7895 1.24691 27.7895 0 27.7895C0 30.9474 0 34.1053 1.24691 37.1053C2.49383 39.9474 4.98766 42.4737 8.2608 43.7368C11.534 45 15.4306 45 19.3272 45C23.2238 45 27.1204 45 30.3935 43.7368C33.6667 42.4737 36.1605 39.9474 37.4074 37.1053C38.6543 34.2632 38.6543 31.1053 38.6543 27.7895C37.4074 27.7895 30.7052 27.7895 30.7052 27.7895V17.3684H23.8472C23.6914 17.3684 23.6914 25.1053 23.6914 27.7895ZM5.92284 0C8.88426 0 14.0278 0 19.1713 0C24.3148 0 29.4583 0 32.4198 0C35.3812 0 36.1605 0 36.784 0.315789C37.4074 0.631579 37.875 1.10526 38.1867 1.57895C38.4985 2.21053 38.4985 2.84211 38.4985 3.47368C38.4985 5.84211 38.4985 10.4211 38.4985 10.4211H24.0031L19.1713 15.3158L14.4954 10.4211H0C0 10.4211 0 5.84211 0 3.47368C0 2.84211 0 2.21053 0.311728 1.57895C0.467593 0.947368 0.935185 0.473684 1.55864 0.315789C2.1821 0 2.96142 0 5.92284 0Z" fill="black"/>
</svg>
