<svg width="150" height="18" viewBox="0 0 150 18" fill="none" xmlns="http://www.w3.org/2000/svg">
<path fill-rule="evenodd" clip-rule="evenodd" d="M114.93 4.36778C114.93 6.10462 114.93 7.84146 114.93 9.5783C116.177 9.5783 117.424 9.5783 118.359 9.5783C119.606 9.5783 120.23 9.5783 120.853 9.42041C121.477 9.26252 121.788 8.78883 121.944 8.15725C122.1 7.52567 122.1 6.5783 121.944 5.94673C121.788 5.31515 121.321 4.84146 120.697 4.68357C120.074 4.52567 119.451 4.52567 118.359 4.52567C117.424 4.36778 116.177 4.36778 114.93 4.36778ZM136.44 4.36778C136.44 7.52567 136.44 10.6836 136.44 13.9994C137.687 13.9994 138.934 13.9994 140.025 13.9994C141.116 13.9994 142.051 13.9994 142.986 13.6836C143.765 13.3678 144.389 12.7362 144.701 11.9467C145.012 11.1573 145.012 10.2099 145.012 9.10462C145.012 8.15725 145.012 7.05199 144.701 6.26252C144.389 5.47304 143.765 4.84146 142.986 4.52567C142.207 4.20988 141.271 4.20988 140.025 4.20988C138.934 4.36778 137.687 4.36778 136.44 4.36778ZM50.7144 4.36778C50.7144 7.52567 50.7144 10.6836 50.7144 13.9994C51.9613 13.9994 53.2082 13.9994 54.2993 13.9994C55.3903 13.9994 56.3255 13.9994 57.2607 13.6836C58.04 13.3678 58.6635 12.7362 58.9752 11.9467C59.2869 11.1573 59.2869 10.2099 59.2869 9.10462C59.2869 8.15725 59.2869 7.05199 58.9752 6.26252C58.6635 5.47304 58.04 4.84146 57.2607 4.52567C56.4814 4.20988 55.5462 4.20988 54.2993 4.20988C53.2082 4.36778 51.9613 4.36778 50.7144 4.36778ZM91.395 6.26252C91.0832 7.05199 91.0832 8.15725 91.0832 9.26251C91.0832 10.3678 91.0832 11.473 91.395 12.2625C91.7067 13.052 92.3301 13.6836 93.1095 13.9994C93.8888 14.3151 94.9798 14.3151 96.0709 14.3151C97.1619 14.3151 98.253 14.3151 99.0323 13.9994C99.8116 13.6836 100.435 13.052 100.747 12.2625C101.059 11.473 101.059 10.3678 101.059 9.26251C101.059 8.15725 101.059 7.05199 100.747 6.26252C100.435 5.47304 99.8116 4.84146 99.0323 4.52567C97.9413 4.20988 96.8502 4.20988 95.7592 4.20988C94.6681 4.20988 93.7329 4.20988 92.9536 4.52567C92.1743 4.84146 91.7067 5.31515 91.395 6.26252ZM22.3471 17.7888H17.2036V6.10462L11.4366 11.9467L5.66964 6.10462V17.7888H0.526123V0.42041H5.66964L11.4366 6.26252L17.2036 0.42041H22.3471V17.7888ZM26.8672 17.7888C26.8672 11.9467 26.8672 6.26251 26.8672 0.42041H41.0508V4.36778H32.0107V7.20988H41.0508V11.1573H32.0107V13.9994H41.0508V17.9467H26.8672V17.7888ZM68.1712 17.7888V12.1046V8.15725V4.36778V0.42041H82.3548V4.36778H73.3147V8.31515H82.3548V12.2625H73.3147V17.9467H68.1712V17.7888ZM89.5246 17.1573C87.9659 16.5257 86.8749 15.2625 86.2514 13.6836C85.628 12.2625 85.628 10.6836 85.628 9.10462C85.628 7.52567 85.628 5.94673 86.2514 4.36778C86.8749 2.94673 87.9659 1.68357 89.5246 1.05199C91.0832 0.42041 92.9536 0.42041 94.3564 0.42041C95.6033 0.42041 96.2267 0.42041 97.4737 0.42041C98.7206 0.42041 100.747 0.42041 102.305 1.05199C103.864 1.68357 104.955 2.94673 105.579 4.36778C106.202 5.78883 106.202 7.36778 106.202 9.10462C106.202 10.6836 106.202 12.2625 105.579 13.8415C104.955 15.2625 103.864 16.5257 102.305 17.1573C100.747 17.7888 98.8764 17.7888 96.8502 17.7888C96.2267 17.7888 95.6033 17.7888 94.9798 17.7888C93.1095 17.7888 91.0832 17.7888 89.5246 17.1573ZM109.787 17.7888C109.787 11.9467 109.787 6.26251 109.787 0.42041C111.501 0.42041 113.216 0.42041 114.93 0.42041C116.177 0.42041 117.424 0.42041 118.983 0.42041C120.542 0.42041 122.256 0.42041 123.659 0.894095C125.062 1.36778 126.309 2.31515 126.932 4.05199C127.555 5.78883 127.555 8.31515 126.932 10.052C126.464 11.3151 125.685 12.1046 124.75 12.7362L127.711 17.9467H122.1L119.606 13.5257C119.295 13.5257 118.983 13.5257 118.671 13.5257C117.268 13.5257 116.021 13.5257 114.775 13.5257C114.775 14.9467 114.775 16.3678 114.775 17.9467C113.216 17.7888 111.501 17.7888 109.787 17.7888ZM131.296 17.7888C131.296 11.9467 131.296 6.26251 131.296 0.42041C134.102 0.42041 136.907 0.42041 139.401 0.42041C141.895 0.42041 144.077 0.42041 145.636 1.05199C147.35 1.68357 148.597 2.94673 149.221 4.36778C149.844 5.78883 149.844 7.36778 149.844 9.10462C149.844 10.6836 149.844 12.4204 149.221 13.8415C148.597 15.2625 147.35 16.5257 145.636 17.1573C143.921 17.7888 141.739 17.7888 140.18 17.7888C138.622 17.7888 137.375 17.7888 136.284 17.7888C134.725 17.7888 133.011 17.7888 131.296 17.7888ZM45.5709 17.7888C45.5709 11.9467 45.5709 6.26251 45.5709 0.42041C48.3764 0.42041 51.182 0.42041 53.6758 0.42041C56.1696 0.42041 58.3517 0.42041 59.9104 1.05199C61.6249 1.68357 62.8718 2.94673 63.4953 4.36778C64.1187 5.78883 64.1187 7.36778 64.1187 9.10462C64.1187 10.6836 64.1187 12.4204 63.4953 13.8415C62.8718 15.2625 61.6249 16.5257 59.9104 17.1573C58.1959 17.7888 56.0138 17.7888 54.4551 17.7888C52.8965 17.7888 51.6496 17.7888 50.5585 17.7888C48.9999 17.7888 47.2854 17.7888 45.5709 17.7888Z" fill="black"/>
</svg>
