<svg width="118" height="27" viewBox="0 0 118 27" fill="none" xmlns="http://www.w3.org/2000/svg">
<path d="M16.4759 9.98531C16.4759 8.45403 17.5091 6.96114 18.0746 7.24692C18.7166 7.5711 17.5941 9.01707 16.4759 9.98531ZM9.43097 10.5441C9.43097 9.31138 10.6469 6.96114 11.3867 7.2128C12.2626 7.50712 10.6597 9.87015 9.43097 10.5441ZM8.198 19.3735C8.07261 19.3861 7.94599 19.3706 7.82729 19.3282C7.7086 19.2857 7.60079 19.2173 7.51168 19.1279C7.42257 19.0385 7.35438 18.9303 7.31205 18.8113C7.26971 18.6922 7.25429 18.5651 7.26689 18.4393C7.26689 16.8313 9.4905 15.2957 11.1656 14.4725C10.868 16.7161 10.1155 19.2839 8.198 19.3735ZM18.4487 14.1356C18.165 14.1206 17.8811 14.1629 17.614 14.26C17.3468 14.357 17.1018 14.5067 16.8933 14.7004C16.6848 14.894 16.5171 15.1277 16.4002 15.3874C16.2832 15.6472 16.2193 15.9278 16.2123 16.2128C16.2123 17.1469 16.7736 17.8934 17.5176 17.8934C17.5845 17.8993 17.652 17.8912 17.7155 17.8694C17.7791 17.8476 17.8374 17.8126 17.8867 17.7668C17.936 17.721 17.9752 17.6653 18.0017 17.6033C18.0282 17.5414 18.0414 17.4745 18.0405 17.4071C18.0405 16.9209 17.3985 16.8014 17.4453 16.0763C17.4727 15.8509 17.5829 15.6439 17.7543 15.4956C17.9256 15.3474 18.1459 15.2685 18.3722 15.2744C19.2693 15.2744 19.6859 16.1275 19.6859 17.0403C19.6921 17.3422 19.639 17.6424 19.5295 17.9237C19.42 18.2051 19.2564 18.462 19.0479 18.6798C18.8395 18.8977 18.5903 19.0722 18.3145 19.1934C18.0388 19.3146 17.742 19.3802 17.4411 19.3863C15.8765 19.3863 14.8901 17.8891 14.8901 16.281C14.8901 13.8882 16.4547 12.954 17.2752 12.728C17.2752 12.728 19.4011 13.1119 19.35 12.1649C19.3203 11.7384 18.7081 11.5934 18.2574 11.572C17.9193 11.5686 17.583 11.622 17.2625 11.7299C16.9993 11.5782 16.8021 11.3332 16.7098 11.0431C18.2404 9.88295 19.3203 8.76114 19.3203 7.49005C19.3279 7.31743 19.299 7.14514 19.2357 6.98445C19.1724 6.82376 19.076 6.67828 18.9528 6.55752C18.8296 6.43675 18.6824 6.34342 18.5208 6.28361C18.3592 6.2238 18.1869 6.19887 18.015 6.21043C16.4887 6.21043 15.3322 8.15546 15.3322 9.9128C15.3195 10.1993 15.3453 10.4862 15.4088 10.7659C14.4497 11.461 13.4564 12.1073 12.4326 12.7024C12.4486 12.3207 12.497 11.9412 12.5772 11.5678C12.9938 11.0943 13.6061 10.3564 13.6061 9.8147C13.615 9.75205 13.61 9.68819 13.5913 9.62774C13.5726 9.5673 13.5407 9.51179 13.4979 9.46524C13.4552 9.41869 13.4027 9.38226 13.3442 9.3586C13.2857 9.33494 13.2226 9.32464 13.1597 9.32844C12.4156 9.32844 11.8544 10.4502 11.7056 11.2351C11.3697 11.6616 10.698 12.1692 10.141 12.1692C9.9873 12.1617 9.84075 12.1018 9.72556 11.9994C9.61038 11.8971 9.53345 11.7583 9.5075 11.6062C10.9233 11.1199 12.675 9.17489 12.675 7.41754C12.6858 7.25024 12.6596 7.0826 12.5981 6.9267C12.5367 6.77079 12.4415 6.63048 12.3195 6.51587C12.1976 6.40125 12.0518 6.31518 11.8927 6.26385C11.7336 6.21251 11.5652 6.19718 11.3995 6.21896C9.72859 6.20617 8.31705 8.71422 8.31705 10.6678C7.72182 10.6678 7.49648 10.0322 7.49648 9.54598C7.53023 9.1678 7.59276 8.79278 7.68355 8.42418C7.68832 8.38199 7.6842 8.33928 7.67145 8.2988C7.6587 8.25832 7.63761 8.22098 7.60954 8.1892C7.58148 8.15743 7.54707 8.13193 7.50855 8.11436C7.47003 8.09679 7.42825 8.08754 7.38594 8.08721C6.82897 8.08721 6.49309 8.83366 6.49309 9.69527C6.47803 10.2093 6.66473 10.7087 7.013 11.086C7.36128 11.4634 7.84329 11.6884 8.35531 11.7128C8.42629 12.0847 8.61855 12.4223 8.90181 12.6725C9.18507 12.9227 9.54324 13.0713 9.91991 13.0948C10.4638 13.1042 10.9932 12.9181 11.4122 12.5701C11.374 12.8303 11.3357 13.0564 11.3017 13.2825C9.66056 14.1356 8.47011 14.7412 7.38594 15.7138C6.60833 16.3784 6.12391 17.3243 6.03817 18.3455C6.02217 18.6343 6.06709 18.9232 6.16997 19.1933C6.27285 19.4635 6.43139 19.7088 6.63523 19.9133C6.83907 20.1178 7.08363 20.2769 7.35292 20.3801C7.62221 20.4833 7.91017 20.5284 8.198 20.5123C9.89866 20.5123 11.2167 19.1303 11.8502 17.2237C12.1462 16.1094 12.3117 14.9642 12.3433 13.8114C13.5186 13.1553 14.6543 12.4303 15.7447 11.6403C15.8388 11.8128 15.966 11.965 16.1188 12.0882C15.3128 12.4741 14.6347 13.0849 14.1657 13.8474C13.6967 14.6099 13.4566 15.4919 13.4743 16.3877C13.4743 18.3327 14.7795 20.4995 17.3518 20.4995C18.2775 20.5079 19.1698 20.1531 19.8386 19.5109C20.5073 18.8687 20.8995 17.9898 20.9317 17.0616C20.9487 15.5559 20.0898 14.1356 18.4487 14.1356ZM24.8559 17.3474C24.8559 17.3474 24.8262 17.3773 24.7879 17.3474L24.7496 17.3005C25.0345 16.367 25.1848 15.3975 25.1961 14.4213C25.1961 12.7749 24.5243 11.764 23.6697 11.764C23.5455 11.7563 23.421 11.776 23.3052 11.8218C23.1894 11.8676 23.085 11.9384 22.9995 12.0291C22.9139 12.1198 22.8492 12.2283 22.81 12.3469C22.7708 12.4654 22.7581 12.5911 22.7726 12.7152C22.7726 13.7261 24.0013 13.7986 24.0013 16.0081C23.982 16.9252 23.8184 17.8336 23.5167 18.6995C22.1391 23.3915 17.7387 25.5242 13.453 25.5242C12.1618 25.5582 10.8752 25.3559 9.65631 24.927V24.8502L9.71158 24.8119C10.6387 25.1034 11.6056 25.2474 12.5772 25.2384C14.2183 25.2384 15.1877 24.5645 15.1877 23.7412C15.1888 23.6183 15.1655 23.4963 15.1191 23.3824C15.0727 23.2686 15.0042 23.1651 14.9175 23.0782C14.8308 22.9912 14.7277 22.9224 14.6142 22.8759C14.5008 22.8294 14.3792 22.806 14.2566 22.8071C13.2489 22.8071 13.1767 24.0867 11.0126 24.0867C10.0859 24.0673 9.1679 23.9033 8.29154 23.6005C3.64024 22.2142 1.45065 17.8379 1.4549 13.5C1.45641 12.2068 1.65866 10.9217 2.05438 9.691H2.12241L2.16067 9.73792C1.87746 10.6697 1.73417 11.6386 1.73551 12.6128C1.73551 14.2592 2.40727 15.2318 3.26185 15.2318C3.37977 15.2335 3.49684 15.2115 3.60617 15.1671C3.71551 15.1228 3.81489 15.0569 3.89848 14.9735C3.98207 14.89 4.04817 14.7906 4.09291 14.6812C4.13764 14.5717 4.16009 14.4543 4.15894 14.336C4.15894 13.3251 2.93022 13.2142 2.93022 11.0431C2.94956 10.1135 3.11308 9.19247 3.41491 8.31328C4.8307 3.67678 9.19288 1.48863 13.4785 1.48863C14.7594 1.47432 16.0333 1.67915 17.2455 2.09432V2.16256L17.1945 2.20095C16.2823 1.8717 15.3195 1.70567 14.3501 1.71043C12.7473 1.71043 11.7439 2.38437 11.7439 3.24171C11.7438 3.36264 11.7681 3.48234 11.8153 3.5936C11.8625 3.70485 11.9318 3.80536 12.0188 3.88906C12.1058 3.97276 12.2088 4.03792 12.3215 4.0806C12.4343 4.12329 12.5545 4.14263 12.675 4.13745C13.6826 4.13745 13.7549 2.90474 15.919 2.90474C16.8456 2.93283 17.7622 3.10552 18.6358 3.41659C23.3126 4.83697 25.4384 9.25166 25.4384 13.5128C25.4592 14.8143 25.2637 16.1103 24.8602 17.3474H24.8559ZM13.4573 0.63555C10.921 0.634707 8.44135 1.38848 6.33207 2.80153C4.22279 4.21458 2.57858 6.22344 1.60739 8.57403C0.636202 10.9246 0.381658 13.5114 0.875954 16.0071C1.37025 18.5029 2.59118 20.7955 4.38433 22.595C6.17748 24.3946 8.46231 25.6202 10.9498 26.117C13.4374 26.6137 16.0158 26.3592 18.3592 25.3856C20.7025 24.4121 22.7054 22.7632 24.1146 20.6476C25.5238 18.5319 26.276 16.0445 26.276 13.5C26.276 10.0889 24.9256 6.8174 22.5217 4.40497C20.1179 1.99254 16.8574 0.636681 13.4573 0.63555ZM13.4573 27C10.7957 27.0009 8.19358 26.2098 5.98012 24.7269C3.76666 23.244 2.04126 21.1359 1.02212 18.6692C0.00298123 16.2025 -0.264108 13.4879 0.254632 10.8689C0.773371 8.24988 2.05464 5.84401 3.93638 3.95557C5.81813 2.06714 8.21583 0.780963 10.8262 0.259717C13.4367 -0.261529 16.1425 0.00556699 18.6016 1.02722C21.0607 2.04888 23.1625 3.77921 24.6413 5.99936C26.1201 8.21952 26.9095 10.8298 26.9095 13.5C26.91 15.2726 26.5625 17.028 25.8867 18.6659C25.2109 20.3038 24.2201 21.792 22.9709 23.0457C21.7217 24.2993 20.2386 25.2938 18.6062 25.9723C16.9738 26.6508 15.2242 27 13.4573 27Z" fill="#086DB6"/>
<path d="M38.4649 17.4919C38.4871 17.6844 38.4555 17.8793 38.3736 18.0548C38.2918 18.2303 38.1629 18.3795 38.0015 18.4858C37.1327 18.9984 36.1393 19.2597 35.1316 19.2407C32.232 19.2237 30.5951 17.0654 30.5951 14.0113C30.5951 10.2151 33.1163 8.67959 35.2719 8.67959C36.2606 8.65827 37.2298 8.95744 38.0355 9.53267C38.1106 9.57511 38.1728 9.6372 38.2154 9.71232C38.2581 9.78744 38.2797 9.87277 38.2778 9.95921C38.2743 10.0847 38.2253 10.2046 38.14 10.2965C38.0547 10.3883 37.9389 10.4459 37.8144 10.4583C37.6656 10.4583 37.589 10.3815 37.3892 10.2621C36.7545 9.81815 35.9988 9.58133 35.2251 9.58386C33.3332 9.58386 31.5305 11.0128 31.5305 14.0284C31.5305 16.5877 32.8655 18.3535 35.1656 18.3535C35.8934 18.3576 36.6123 18.1927 37.2659 17.8715C37.4445 17.782 37.5083 17.6625 37.5083 17.3597V14.6426H35.2506C35.1879 14.6487 35.1246 14.6406 35.0654 14.6191C35.0061 14.5976 34.9524 14.5632 34.908 14.5183C34.8637 14.4734 34.8298 14.4191 34.8089 14.3595C34.788 14.2999 34.7806 14.2363 34.7872 14.1734C34.7813 14.1109 34.7892 14.0478 34.8104 13.9887C34.8316 13.9296 34.8656 13.8759 34.9098 13.8315C34.9541 13.7871 35.0076 13.7531 35.0665 13.7318C35.1254 13.7105 35.1883 13.7026 35.2506 13.7085H38.0142C38.0755 13.7045 38.137 13.714 38.1943 13.7361C38.2516 13.7583 38.3035 13.7926 38.3463 13.8368C38.3892 13.881 38.4219 13.934 38.4424 13.9921C38.4629 14.0502 38.4705 14.1121 38.4649 14.1734V17.4919Z" fill="#231F20"/>
<path d="M45.7732 19.0742H41.6448C41.5094 19.0901 41.3722 19.0754 41.2431 19.0311C41.1141 18.9869 40.9966 18.9143 40.8991 18.8186C40.8017 18.7229 40.7269 18.6065 40.6801 18.4781C40.6333 18.3496 40.6157 18.2122 40.6287 18.0761V9.9718C40.6081 9.82052 40.6218 9.66652 40.669 9.52135C40.7162 9.37618 40.7955 9.24362 40.9011 9.13362C41.0067 9.02362 41.1357 8.93904 41.2785 8.88623C41.4213 8.83341 41.5742 8.81373 41.7256 8.82867H45.7647C45.8283 8.81998 45.8931 8.82587 45.9542 8.8459C46.0152 8.86593 46.071 8.89958 46.1172 8.94432C46.1635 8.98906 46.199 9.04374 46.2211 9.10423C46.2433 9.16473 46.2515 9.22947 46.2451 9.2936C46.2451 9.60924 46.0963 9.75853 45.7647 9.75853H41.8319C41.796 9.75895 41.7605 9.76686 41.7277 9.78177C41.695 9.79667 41.6657 9.81825 41.6417 9.84513C41.6177 9.872 41.5996 9.90358 41.5884 9.93787C41.5772 9.97217 41.5733 10.0084 41.5768 10.0443V13.269H45.3055C45.3694 13.2626 45.434 13.2708 45.4943 13.293C45.5546 13.3152 45.6091 13.3509 45.6537 13.3973C45.6983 13.4437 45.7318 13.4996 45.7518 13.5608C45.7717 13.6221 45.7776 13.6871 45.7689 13.7509C45.7735 13.8128 45.7646 13.8749 45.7428 13.933C45.721 13.991 45.6869 14.0436 45.6428 14.087C45.5987 14.1305 45.5456 14.1638 45.4874 14.1845C45.4291 14.2053 45.3671 14.2131 45.3055 14.2073H41.5981V17.9182C41.5981 18.0547 41.6576 18.1443 41.7936 18.1443H45.7859C46.1176 18.1443 46.2664 18.2808 46.2664 18.5964C46.2753 18.6628 46.2686 18.7304 46.2467 18.7936C46.2248 18.8569 46.1884 18.9141 46.1404 18.9606C46.0924 19.0071 46.0341 19.0417 45.9703 19.0614C45.9065 19.0811 45.839 19.0855 45.7732 19.0742Z" fill="#231F20"/>
<path d="M57.742 19.1176C57.6781 19.124 57.6136 19.1157 57.5533 19.0935C57.493 19.0713 57.4385 19.0356 57.3939 18.9893C57.3493 18.9429 57.3157 18.887 57.2958 18.8257C57.2758 18.7644 57.2699 18.6994 57.2786 18.6356V14.2977H51.9768V18.6356C51.986 18.701 51.9799 18.7677 51.9591 18.8304C51.9382 18.8931 51.903 18.9501 51.8565 18.9968C51.8099 19.0436 51.7531 19.0788 51.6906 19.0998C51.6281 19.1207 51.5616 19.1268 51.4964 19.1176C51.4324 19.124 51.3679 19.1157 51.3076 19.0935C51.2473 19.0713 51.1928 19.0356 51.1482 18.9893C51.1036 18.9429 51.0701 18.887 51.0501 18.8257C51.0301 18.7644 51.0243 18.6994 51.0329 18.6356V9.2517C51.027 9.18916 51.0349 9.12609 51.0561 9.06699C51.0773 9.00789 51.1113 8.95421 51.1556 8.90979C51.1998 8.86538 51.2533 8.83132 51.3123 8.81005C51.3712 8.78878 51.434 8.78083 51.4964 8.78677C51.56 8.77807 51.6248 8.78396 51.6859 8.80399C51.7469 8.82402 51.8027 8.85767 51.8489 8.90241C51.8951 8.94716 51.9307 9.00183 51.9528 9.06233C51.975 9.12282 51.9832 9.18757 51.9768 9.2517V13.3635H57.2786V9.2517C57.2727 9.18916 57.2806 9.12609 57.3018 9.06699C57.323 9.00789 57.357 8.95421 57.4012 8.90979C57.4455 8.86538 57.499 8.83132 57.5579 8.81005C57.6168 8.78878 57.6797 8.78083 57.742 8.78677C57.8057 8.77807 57.8705 8.78396 57.9315 8.80399C57.9926 8.82402 58.0483 8.85767 58.0946 8.90241C58.1408 8.94716 58.1763 9.00183 58.1985 9.06233C58.2206 9.12282 58.2288 9.18757 58.2225 9.2517V18.6356C58.2317 18.701 58.2256 18.7677 58.2047 18.8304C58.1838 18.8931 58.1487 18.9501 58.1021 18.9968C58.0555 19.0436 57.9987 19.0788 57.9363 19.0998C57.8738 19.1207 57.8073 19.1268 57.742 19.1176Z" fill="#231F20"/>
<path d="M65.7902 15.5173H61.1134C61.1134 17.2234 62.1806 18.3324 63.6049 18.3324C64.2274 18.3207 64.8348 18.1378 65.3608 17.8035C65.5266 17.6969 65.5861 17.6542 65.7052 17.6542C65.8236 17.666 65.9331 17.7223 66.012 17.8116C66.0908 17.901 66.1331 18.0169 66.1304 18.1362C66.1304 18.3026 66.0411 18.3794 65.922 18.4817C65.2507 18.9881 64.4274 19.2499 63.5879 19.2239C61.394 19.2239 60.1653 17.5988 60.1653 15.3083C60.1653 13.1542 61.292 11.2433 63.5453 11.2433C65.4203 11.2433 66.5215 12.6296 66.5215 14.6557C66.496 15.1249 66.3004 15.5173 65.7902 15.5173ZM63.5071 12.1263C62.036 12.1263 61.2112 13.2865 61.1347 14.6429H65.5649C65.5819 13.3163 64.9186 12.1263 63.5071 12.1263Z" fill="#231F20"/>
<path d="M73.643 19.1174C73.5806 19.1233 73.5178 19.1153 73.4588 19.0941C73.3999 19.0728 73.3464 19.0388 73.3022 18.9943C73.2579 18.9499 73.2239 18.8962 73.2027 18.8371C73.1815 18.778 73.1736 18.715 73.1795 18.6524V17.9188C72.9471 18.3235 72.6087 18.6567 72.201 18.8823C71.7933 19.1079 71.3318 19.2172 70.8666 19.1984C68.643 19.1984 67.7119 17.3003 67.7119 15.1932C67.7119 13.0861 68.6728 11.2178 70.9687 11.2178C71.4093 11.1981 71.847 11.2982 72.2355 11.5077C72.6239 11.7173 72.9487 12.0283 73.1753 12.4079V11.7979C73.1753 11.4951 73.3241 11.3458 73.6387 11.3458C73.6999 11.3401 73.7616 11.3478 73.8195 11.3684C73.8774 11.3889 73.9302 11.4218 73.9743 11.4647C74.0183 11.5077 74.0525 11.5598 74.0746 11.6173C74.0967 11.6748 74.1061 11.7364 74.1021 11.7979V18.6524C74.108 18.7146 74.1001 18.7772 74.0792 18.836C74.0582 18.8948 74.0246 18.9482 73.9809 18.9926C73.9371 19.0369 73.8841 19.0711 73.8257 19.0926C73.7673 19.1142 73.7049 19.1226 73.643 19.1174ZM73.1795 14.5065C73.1795 13.1373 72.2952 12.1434 71.0027 12.1434C69.302 12.1434 68.6473 13.7558 68.6473 15.2316C68.6473 16.7074 69.115 18.3453 70.9984 18.3453C72.2739 18.3453 73.1753 17.3643 73.1753 15.9951L73.1795 14.5065Z" fill="#231F20"/>
<path d="M77.2612 18.6649C77.2652 18.7264 77.2558 18.7881 77.2337 18.8456C77.2116 18.9031 77.1774 18.9551 77.1334 18.9981C77.0893 19.0411 77.0365 19.074 76.9786 19.0945C76.9207 19.115 76.859 19.1227 76.7978 19.1171C76.4832 19.1171 76.3344 18.9678 76.3344 18.6649V8.22747C76.3304 8.16596 76.3398 8.10433 76.3619 8.04681C76.384 7.98929 76.4182 7.93725 76.4622 7.89428C76.5063 7.85131 76.5591 7.81843 76.617 7.79789C76.675 7.77736 76.7366 7.76967 76.7978 7.77534C77.1124 7.77534 77.2612 7.92463 77.2612 8.22747V18.6649Z" fill="#231F20"/>
<path d="M82.1122 12.2505H80.8367V17.0406C80.8367 17.6719 80.9727 18.3202 81.721 18.3202C81.913 18.3204 82.1028 18.2797 82.278 18.2008C82.3804 18.1412 82.4928 18.1008 82.6096 18.0813C82.7133 18.0939 82.8088 18.1443 82.8778 18.223C82.9468 18.3017 82.9845 18.4031 82.9837 18.5079C82.9781 18.5838 82.9547 18.6573 82.9156 18.7225C82.8765 18.7877 82.8226 18.8427 82.7584 18.8832C82.4449 19.099 82.0713 19.2095 81.6912 19.1989C80.5943 19.1989 79.9056 18.687 79.9056 17.0918V12.2505H79.0552C78.7406 12.2505 78.5918 12.1311 78.5918 11.824C78.5918 11.5169 78.7406 11.3974 79.0552 11.3974H79.9056V9.62731C79.9015 9.5654 79.911 9.50336 79.9333 9.44551C79.9556 9.38766 79.9903 9.33539 80.0348 9.29234C80.0793 9.2493 80.1327 9.21651 80.1911 9.19628C80.2496 9.17604 80.3117 9.16884 80.3732 9.17517C80.6879 9.17517 80.8367 9.32446 80.8367 9.62731V11.3889H82.1122C82.4268 11.3889 82.5756 11.5083 82.5756 11.8155C82.5756 12.1226 82.4268 12.2505 82.1122 12.2505Z" fill="#231F20"/>
<path d="M89.7693 19.1174C89.7057 19.1261 89.6409 19.1202 89.5798 19.1001C89.5188 19.0801 89.463 19.0465 89.4168 19.0017C89.3706 18.957 89.335 18.9023 89.3129 18.8418C89.2907 18.7813 89.2825 18.7166 89.2889 18.6524V14.2207C89.2889 13.3036 89.004 12.1264 87.4734 12.1264C86.198 12.1264 85.1776 13.0605 85.1776 14.8093V18.6482C85.1776 18.772 85.1285 18.8908 85.0412 18.9784C84.9539 19.066 84.8355 19.1152 84.712 19.1152C84.5885 19.1152 84.4701 19.066 84.3828 18.9784C84.2955 18.8908 84.2465 18.772 84.2465 18.6482V8.24059C84.2465 8.11672 84.2955 7.99792 84.3828 7.91033C84.4701 7.82274 84.5885 7.77353 84.712 7.77353C84.8355 7.77353 84.9539 7.82274 85.0412 7.91033C85.1285 7.99792 85.1776 8.11672 85.1776 8.24059V12.6084C85.4218 12.1838 85.775 11.8328 86.2006 11.592C86.6261 11.3511 87.1083 11.2293 87.5967 11.2392C89.5355 11.2392 90.2243 12.5188 90.2243 13.9648V18.6567C90.22 18.9681 90.084 19.1174 89.7693 19.1174Z" fill="#231F20"/>
<path d="M97.8478 12.4588C97.8447 12.579 97.7966 12.6936 97.7131 12.7797C97.6296 12.8659 97.5167 12.9173 97.3971 12.9237C97.261 12.9237 97.1717 12.847 96.9719 12.7147C96.4999 12.3329 95.9116 12.1252 95.3053 12.1261C93.847 12.1261 92.7968 13.2692 92.7968 15.2313C92.7968 17.1934 93.8172 18.3365 95.2585 18.3365C95.8881 18.3257 96.4959 18.1035 96.9847 17.7053C97.1018 17.5937 97.2502 17.5207 97.4098 17.4962C97.5278 17.509 97.6368 17.5655 97.7155 17.6546C97.7941 17.7438 97.8367 17.8592 97.835 17.9782C97.8326 18.0529 97.8124 18.126 97.7762 18.1912C97.7399 18.2565 97.6887 18.3122 97.6267 18.3536C96.9548 18.9194 96.1016 19.2224 95.2245 19.2067C93.1837 19.2067 91.8615 17.6114 91.8615 15.2143C91.8615 12.7446 93.3623 11.2218 95.3308 11.2218C95.7538 11.1998 96.1768 11.2641 96.5743 11.4107C96.9719 11.5573 97.3356 11.7833 97.6437 12.0749C97.7035 12.1201 97.7528 12.1779 97.788 12.2442C97.8233 12.3105 97.8436 12.3838 97.8478 12.4588Z" fill="#231F20"/>
<path d="M104.829 19.1174C104.766 19.1233 104.704 19.1153 104.645 19.0941C104.586 19.0728 104.532 19.0388 104.488 18.9943C104.444 18.9499 104.41 18.8962 104.389 18.8371C104.367 18.778 104.359 18.715 104.365 18.6524V17.9188C104.133 18.3235 103.794 18.6567 103.387 18.8823C102.979 19.1079 102.518 19.2172 102.052 19.1984C99.8288 19.1984 98.8977 17.3003 98.8977 15.1932C98.8977 13.0861 99.8586 11.2178 102.154 11.2178C102.595 11.1981 103.033 11.2982 103.421 11.5077C103.81 11.7173 104.134 12.0283 104.361 12.4079V11.7979C104.361 11.4951 104.51 11.3458 104.824 11.3458C104.886 11.3401 104.947 11.3478 105.005 11.3684C105.063 11.3889 105.116 11.4218 105.16 11.4647C105.204 11.5077 105.238 11.5598 105.26 11.6173C105.282 11.6748 105.292 11.7364 105.288 11.7979V18.6524C105.294 18.7146 105.286 18.7772 105.265 18.836C105.244 18.8948 105.21 18.9482 105.167 18.9926C105.123 19.0369 105.07 19.0711 105.012 19.0926C104.953 19.1142 104.891 19.1226 104.829 19.1174ZM104.348 14.5065C104.348 13.1373 103.464 12.1434 102.171 12.1434C100.471 12.1434 99.8161 13.7558 99.8161 15.2316C99.8161 16.7074 100.296 18.3453 102.171 18.3453C103.447 18.3453 104.348 17.3643 104.348 15.9951V14.5065Z" fill="#231F20"/>
<path d="M111.032 12.2498C110.955 12.2445 110.879 12.2287 110.806 12.2029C110.631 12.1519 110.449 12.126 110.266 12.1261C109.216 12.1261 108.434 12.9237 108.434 14.2588V18.6522C108.44 18.7147 108.432 18.7778 108.411 18.8369C108.389 18.896 108.356 18.9496 108.311 18.9941C108.267 19.0385 108.213 19.0725 108.155 19.0938C108.096 19.1151 108.033 19.123 107.97 19.1171C107.908 19.123 107.845 19.1151 107.786 19.0938C107.727 19.0725 107.674 19.0385 107.63 18.9941C107.585 18.9496 107.551 18.896 107.53 18.8369C107.509 18.7778 107.501 18.7147 107.507 18.6522V11.7977C107.503 11.7361 107.512 11.6745 107.535 11.617C107.557 11.5595 107.591 11.5074 107.635 11.4645C107.679 11.4215 107.732 11.3886 107.79 11.3681C107.848 11.3475 107.909 11.3398 107.97 11.3455C108.285 11.3455 108.434 11.4948 108.434 11.7977V12.3266C108.61 11.9908 108.876 11.7113 109.202 11.5198C109.528 11.3283 109.901 11.2324 110.279 11.2432C111.002 11.2432 111.359 11.4692 111.359 11.7721C111.359 12.0749 111.24 12.2498 111.032 12.2498Z" fill="#231F20"/>
<path d="M117.29 15.5169H112.613C112.613 17.2231 113.681 18.3321 115.105 18.3321C115.727 18.3204 116.335 18.1374 116.861 17.8032C117.027 17.6966 117.086 17.6539 117.205 17.6539C117.324 17.6657 117.433 17.7219 117.512 17.8113C117.591 17.9006 117.633 18.0166 117.63 18.1359C117.63 18.3022 117.541 18.379 117.422 18.4814C116.752 18.9844 115.933 19.2446 115.096 19.2193C112.903 19.2193 111.674 17.5942 111.674 15.3037C111.674 13.1496 112.801 11.2387 115.054 11.2387C116.929 11.2387 118.03 12.625 118.03 14.6511C118.009 15.1245 117.8 15.5169 117.29 15.5169ZM115.007 12.1259C113.536 12.1259 112.711 13.2861 112.635 14.6425H117.065C117.082 13.316 116.419 12.1259 115.007 12.1259Z" fill="#231F20"/>
</svg>
