<svg width="23" height="25" viewBox="0 0 23 25" fill="none" xmlns="http://www.w3.org/2000/svg">
<path d="M18.2766 18.5785H22.3655L16.3282 24.6021V20.5269C16.33 20.0107 16.5359 19.5162 16.9009 19.1512C17.2659 18.7861 17.7604 18.5803 18.2766 18.5785ZM22.7497 3.30681V17.2064H18.2766C17.3962 17.2071 16.552 17.5572 15.9295 18.1797C15.3069 18.8023 14.9568 19.6465 14.9561 20.5269V25H3.30681C2.4299 24.9996 1.58901 24.6511 0.968942 24.0311C0.348875 23.411 0.000363636 22.5701 0 21.6932V3.30681C0.000363636 2.4299 0.348875 1.58901 0.968942 0.968942C1.58901 0.348875 2.4299 0.000363636 3.30681 0H19.4429C20.3198 0.000363636 21.1607 0.348875 21.7808 0.968942C22.4008 1.58901 22.7494 2.4299 22.7497 3.30681ZM8.19155 11.2788C8.19319 11.0261 8.14462 10.7756 8.04866 10.5418C7.95271 10.308 7.81127 10.0955 7.63257 9.91683C7.45386 9.73812 7.24144 9.59669 7.00764 9.50073C6.77384 9.40477 6.5233 9.35621 6.27058 9.35785H4.43194C4.24999 9.35785 4.07549 9.43013 3.94683 9.55879C3.81816 9.68745 3.74588 9.86195 3.74588 10.0439V14.9561C3.74588 15.138 3.81816 15.3125 3.94683 15.4412C4.07549 15.5699 4.24999 15.6421 4.43194 15.6421C4.61301 15.6393 4.78588 15.5661 4.91393 15.4381C5.04198 15.31 5.11517 15.1372 5.118 14.9561V13.1861H6.27058C6.77768 13.1861 7.26422 12.9856 7.62408 12.6283C7.98394 12.271 8.18792 11.7859 8.19155 11.2788ZM13.5977 11.2651C13.5982 11.0145 13.5493 10.7662 13.4536 10.5346C13.358 10.3029 13.2175 10.0925 13.0403 9.91526C12.8631 9.73804 12.6526 9.59758 12.421 9.50192C12.1893 9.40627 11.9411 9.3573 11.6904 9.35785H9.83809C9.65613 9.35785 9.48163 9.43013 9.35297 9.55879C9.22431 9.68745 9.15203 9.86195 9.15203 10.0439V14.9561C9.15203 15.138 9.22431 15.3125 9.35297 15.4412C9.48163 15.5699 9.65613 15.6421 9.83809 15.6421H11.6904C11.9411 15.6427 12.1893 15.5937 12.421 15.4981C12.6526 15.4024 12.8631 15.262 13.0403 15.0847C13.2175 14.9075 13.358 14.6971 13.4536 14.4654C13.5493 14.2338 13.5982 13.9855 13.5977 13.7349V11.2651ZM19.045 10.0439C19.045 9.86195 18.9727 9.68745 18.8441 9.55879C18.7154 9.43013 18.5409 9.35785 18.3589 9.35785H15.2717C15.0897 9.35785 14.9152 9.43013 14.7866 9.55879C14.6579 9.68745 14.5856 9.86195 14.5856 10.0439V14.9561C14.5856 15.138 14.6579 15.3125 14.7866 15.4412C14.9152 15.5699 15.0897 15.6421 15.2717 15.6421C15.4536 15.6421 15.6281 15.5699 15.7568 15.4412C15.8855 15.3125 15.9577 15.138 15.9577 14.9561V13.1861H17.5494C17.7313 13.1861 17.9058 13.1138 18.0345 12.9851C18.1632 12.8565 18.2355 12.682 18.2355 12.5C18.2355 12.318 18.1632 12.1435 18.0345 12.0149C17.9058 11.8862 17.7313 11.8139 17.5494 11.8139H15.9577V10.73H18.3589C18.54 10.7271 18.7129 10.6539 18.8409 10.5259C18.969 10.3978 19.0422 10.225 19.045 10.0439ZM6.27058 10.73H5.118V11.8139H6.27058C6.4138 11.814 6.55136 11.758 6.6539 11.6581C6.75645 11.5581 6.81585 11.422 6.81943 11.2788C6.82151 11.2062 6.80874 11.1339 6.7819 11.0663C6.75505 10.9988 6.7147 10.9375 6.66332 10.8861C6.61193 10.8347 6.55059 10.7943 6.48306 10.7675C6.41552 10.7407 6.34322 10.7279 6.27058 10.73ZM11.6904 10.73H10.5241V14.27H11.6904C11.8313 14.2666 11.9654 14.2091 12.065 14.1094C12.1646 14.0098 12.2221 13.8757 12.2256 13.7349V11.2651C12.2221 11.1243 12.1646 10.9902 12.065 10.8906C11.9654 10.7909 11.8313 10.7334 11.6904 10.73Z" fill="#14C1DE"/>
</svg>
