<svg width="24" height="25" viewBox="0 0 24 25" fill="none" xmlns="http://www.w3.org/2000/svg">
<path d="M19.9664 0H3.82547C2.14303 0 0.749756 1.36698 0.749756 3.07571V21.9243C0.749756 23.6067 2.11674 25 3.82547 25H19.9927C21.6751 25 23.0684 23.633 23.0684 21.9243V3.07571C23.0421 1.36698 21.6751 0 19.9664 0ZM10.6078 16.9821L7.40065 20.715C7.21663 20.9253 6.87489 20.9253 6.66458 20.715L4.74555 18.3491C4.58782 18.1651 4.61411 17.9022 4.77184 17.7182L5.21874 17.2713C5.40275 17.0873 5.69192 17.0873 5.87594 17.2713L7.00633 18.4017L9.47741 15.9306C9.66143 15.7466 9.9506 15.7466 10.1346 15.9306L10.5552 16.3512C10.7655 16.5089 10.7655 16.7981 10.6078 16.9821ZM10.6078 11.1462L7.40065 14.8791C7.21663 15.0894 6.87489 15.0894 6.66458 14.8791L4.74555 12.5131C4.58782 12.3291 4.61411 12.0662 4.77184 11.8822L5.21874 11.4353C5.40275 11.2513 5.69192 11.2513 5.87594 11.4353L7.00633 12.5657L9.47741 10.0946C9.66143 9.91062 9.9506 9.91062 10.1346 10.0946L10.5552 10.5152C10.7655 10.673 10.7655 10.9621 10.6078 11.1462ZM10.6078 5.3102L7.40065 9.04311C7.21663 9.25342 6.87489 9.25342 6.66458 9.04311L4.74555 6.67718C4.58782 6.49317 4.61411 6.23028 4.77184 6.04627L5.21874 5.59937C5.40275 5.41535 5.69192 5.41535 5.87594 5.59937L7.00633 6.72976L9.47741 4.25868C9.66143 4.07466 9.9506 4.07466 10.1346 4.25868L10.5552 4.67929C10.7655 4.83701 10.7655 5.12618 10.6078 5.3102ZM19.1252 19.2955C19.1252 19.4532 18.9937 19.5846 18.836 19.5846H12.1325C11.9748 19.5846 11.8433 19.4532 11.8433 19.2955V18.1388C11.8433 17.9811 11.9748 17.8496 12.1325 17.8496H18.8623C19.02 17.8496 19.1514 17.9811 19.1514 18.1388V19.2955H19.1252ZM19.1252 13.4595C19.1252 13.6172 18.9937 13.7487 18.836 13.7487H12.1325C11.9748 13.7487 11.8433 13.6172 11.8433 13.4595V12.3028C11.8433 12.1451 11.9748 12.0137 12.1325 12.0137H18.8623C19.02 12.0137 19.1514 12.1451 19.1514 12.3028V13.4595H19.1252ZM19.1252 7.62355C19.1252 7.78128 18.9937 7.91272 18.836 7.91272H12.1325C11.9748 7.91272 11.8433 7.78128 11.8433 7.62355V6.46688C11.8433 6.30915 11.9748 6.17771 12.1325 6.17771H18.8623C19.02 6.17771 19.1514 6.30915 19.1514 6.46688V7.62355H19.1252Z" fill="#14C1DE"/>
</svg>
