<svg width="21" height="25" viewBox="0 0 21 25" fill="none" xmlns="http://www.w3.org/2000/svg">
<path d="M18.2498 0H3.24976C2.58694 0.000727899 1.95148 0.264354 1.48279 0.733037C1.01411 1.20172 0.750484 1.83718 0.749756 2.5V18.3333H5.74976C6.19163 18.3338 6.61526 18.5096 6.92771 18.822C7.24016 19.1345 7.41592 19.5581 7.41642 20V25H18.2498C18.9126 24.9993 19.548 24.7356 20.0167 24.267C20.4854 23.7983 20.749 23.1628 20.7498 22.5V2.5C20.749 1.83718 20.4854 1.20172 20.0167 0.733037C19.548 0.264354 18.9126 0.000727899 18.2498 0ZM6.58309 4.16667H14.9164C15.1374 4.16667 15.3494 4.25446 15.5057 4.41074C15.662 4.56702 15.7498 4.77899 15.7498 5C15.7498 5.22101 15.662 5.43297 15.5057 5.58926C15.3494 5.74554 15.1374 5.83333 14.9164 5.83333H6.58309C6.36208 5.83333 6.15011 5.74554 5.99383 5.58926C5.83755 5.43297 5.74976 5.22101 5.74976 5C5.74976 4.77899 5.83755 4.56702 5.99383 4.41074C6.15011 4.25446 6.36208 4.16667 6.58309 4.16667ZM6.58309 9.16667H14.9164C15.1374 9.16667 15.3494 9.25446 15.5057 9.41074C15.662 9.56702 15.7498 9.77899 15.7498 10C15.7498 10.221 15.662 10.433 15.5057 10.5893C15.3494 10.7455 15.1374 10.8333 14.9164 10.8333H6.58309C6.36208 10.8333 6.15011 10.7455 5.99383 10.5893C5.83755 10.433 5.74976 10.221 5.74976 10C5.74976 9.77899 5.83755 9.56702 5.99383 9.41074C6.15011 9.25446 6.36208 9.16667 6.58309 9.16667ZM6.58309 15.8333C6.36208 15.8333 6.15011 15.7455 5.99383 15.5893C5.83755 15.433 5.74976 15.221 5.74976 15C5.74976 14.779 5.83755 14.567 5.99383 14.4107C6.15011 14.2545 6.36208 14.1667 6.58309 14.1667H14.9164C15.1374 14.1667 15.3494 14.2545 15.5057 14.4107C15.662 14.567 15.7498 14.779 15.7498 15C15.7498 15.221 15.662 15.433 15.5057 15.5893C15.3494 15.7455 15.1374 15.8333 14.9164 15.8333H6.58309ZM15.7498 20.8333H11.5831C11.3621 20.8333 11.1501 20.7455 10.9938 20.5893C10.8376 20.433 10.7498 20.221 10.7498 20C10.7498 19.779 10.8376 19.567 10.9938 19.4107C11.1501 19.2545 11.3621 19.1667 11.5831 19.1667H15.7498C15.9708 19.1667 16.1827 19.2545 16.339 19.4107C16.4953 19.567 16.5831 19.779 16.5831 20C16.5831 20.221 16.4953 20.433 16.339 20.5893C16.1827 20.7455 15.9708 20.8333 15.7498 20.8333Z" fill="#14C1DE"/>
</svg>
