<svg width="45" height="45" viewBox="0 0 45 45" fill="none" xmlns="http://www.w3.org/2000/svg">
<path d="M43.8907 38.4399L28.3209 22.87C28.8463 21.3299 28.9068 19.6692 28.4949 18.0949C28.083 16.5206 27.2169 15.1023 26.0045 14.0169C24.792 12.9314 23.287 12.2268 21.6769 11.9909C20.0668 11.755 18.4228 11.9982 16.95 12.6901C17.0068 12.7222 17.0592 12.7615 17.106 12.8071L22.3999 18.1026C22.4707 18.1734 22.5269 18.2574 22.5653 18.35C22.6036 18.4425 22.6233 18.5417 22.6233 18.6418C22.6233 18.742 22.6036 18.8411 22.5653 18.9337C22.5269 19.0262 22.4707 19.1103 22.3999 19.1811L19.2734 22.3025C19.2026 22.3734 19.1186 22.4295 19.026 22.4679C18.9335 22.5062 18.8343 22.5259 18.7342 22.5259C18.634 22.5259 18.5349 22.5062 18.4423 22.4679C18.3498 22.4295 18.2658 22.3734 18.1949 22.3025L12.9 17.0096C12.8808 16.9886 12.8627 16.9666 12.846 16.9436C12.2288 18.3939 12.0379 19.9902 12.2954 21.5452C12.553 23.1002 13.2484 24.5496 14.3002 25.7235C15.3521 26.8974 16.7167 27.7473 18.2342 28.1734C19.7517 28.5995 21.3592 28.5843 22.8684 28.1295L38.5348 43.7959C38.8864 44.1476 39.3039 44.4266 39.7634 44.6169C40.2229 44.8072 40.7154 44.9052 41.2128 44.9052C41.7101 44.9052 42.2026 44.8072 42.6621 44.6169C43.1216 44.4266 43.5391 44.1476 43.8907 43.7959C44.2424 43.4442 44.5214 43.0267 44.7118 42.5672C44.9021 42.1077 45.0001 41.6152 45.0001 41.1179C45.0001 40.6205 44.9021 40.128 44.7118 39.6685C44.5214 39.2091 44.2424 38.7916 43.8907 38.4399ZM41.2858 43.1054C40.9071 43.1055 40.5369 42.9933 40.222 42.783C39.9071 42.5726 39.6616 42.2737 39.5166 41.9239C39.3717 41.574 39.3337 41.1891 39.4075 40.8177C39.4813 40.4463 39.6636 40.1051 39.9313 39.8373C40.1991 39.5695 40.5402 39.3871 40.9116 39.3132C41.283 39.2393 41.6679 39.2772 42.0178 39.4221C42.3676 39.567 42.6667 39.8123 42.8771 40.1272C43.0874 40.442 43.1997 40.8122 43.1997 41.1909C43.1997 41.6986 42.998 42.1856 42.639 42.5446C42.28 42.9037 41.793 43.1054 41.2853 43.1054H41.2858Z" fill="#14C1DE"/>
<path d="M39.1642 16.8269H36.5967C36.1738 14.839 35.3885 12.946 34.2802 11.2424L36.0997 9.42092C36.2336 9.28702 36.3399 9.12804 36.4124 8.95307C36.4848 8.7781 36.5222 8.59057 36.5222 8.40118C36.5222 8.21179 36.4848 8.02426 36.4124 7.84929C36.3399 7.67432 36.2336 7.51534 36.0997 7.38144L33.2247 4.50246C33.0908 4.36853 32.9318 4.26229 32.7569 4.1898C32.5819 4.11732 32.3944 4.08001 32.205 4.08001C32.0156 4.08001 31.8281 4.11732 31.6531 4.1898C31.4781 4.26229 31.3191 4.36853 31.1852 4.50246L29.3643 6.32345C27.6607 5.21512 25.7677 4.42987 23.7798 4.00697V1.44199C23.7798 1.05955 23.6279 0.692774 23.3575 0.422349C23.087 0.151923 22.7203 0 22.3378 0H18.2688C17.8864 0 17.5196 0.151923 17.2492 0.422349C16.9788 0.692774 16.8269 1.05955 16.8269 1.44199V4.00947C14.839 4.43237 12.946 5.21762 11.2424 6.32595L9.40542 4.48896C9.27152 4.35503 9.11254 4.24879 8.93757 4.1763C8.7626 4.10382 8.57507 4.06651 8.38568 4.06651C8.19629 4.06651 8.00876 4.10382 7.83379 4.1763C7.65882 4.24879 7.49984 4.35503 7.36594 4.48896L4.48946 7.36544C4.35553 7.49934 4.24929 7.65832 4.1768 7.83329C4.10432 8.00826 4.06701 8.19579 4.06701 8.38518C4.06701 8.57457 4.10432 8.7621 4.1768 8.93707C4.24929 9.11204 4.35553 9.27102 4.48946 9.40492L6.32645 11.2419C5.21811 12.9455 4.43286 14.8385 4.00997 16.8264H1.44199C1.25258 16.8264 1.06503 16.8637 0.890048 16.9362C0.715065 17.0087 0.556079 17.1149 0.422172 17.2489C0.288264 17.3828 0.182059 17.5419 0.109621 17.7169C0.0371841 17.8919 -6.55883e-05 18.0794 8.66923e-08 18.2688V22.3373C8.66923e-08 22.7198 0.151923 23.0865 0.422349 23.357C0.692774 23.6274 1.05955 23.7793 1.44199 23.7793H4.00947C4.43238 25.7672 5.21763 27.6602 6.32595 29.3638L4.50596 31.1837C4.37203 31.3176 4.26579 31.4766 4.1933 31.6516C4.12082 31.8266 4.08351 32.0141 4.08351 32.2035C4.08351 32.3929 4.12082 32.5804 4.1933 32.7554C4.26579 32.9303 4.37203 33.0893 4.50596 33.2232L7.38294 36.1022C7.51684 36.2361 7.67582 36.3424 7.85079 36.4149C8.02576 36.4873 8.21329 36.5246 8.40268 36.5246C8.59207 36.5246 8.7796 36.4873 8.95457 36.4149C9.12954 36.3424 9.28852 36.2361 9.42242 36.1022L11.2424 34.2822C12.946 35.3905 14.839 36.1758 16.8269 36.5987V39.1662C16.8269 39.5486 16.9788 39.9154 17.2492 40.1858C17.5196 40.4562 17.8864 40.6082 18.2688 40.6082H22.3373C22.7198 40.6082 23.0865 40.4562 23.357 40.1858C23.6274 39.9154 23.7793 39.5486 23.7793 39.1662V36.5962C24.6834 36.4041 25.5699 36.1365 26.4293 35.7962L22.0873 31.4522C19.7366 31.8289 17.327 31.453 15.2026 30.3785C13.0783 29.3039 11.3478 27.5855 10.2583 25.4688C9.16879 23.352 8.77604 20.9451 9.13611 18.5918C9.49619 16.2385 10.5907 14.0592 12.2633 12.365C13.9358 10.6709 16.101 9.54856 18.4495 9.15837C20.798 8.76819 23.2097 9.13008 25.3403 10.1924C27.4708 11.2547 29.2112 12.963 30.3129 15.0734C31.4146 17.1839 31.8212 19.5885 31.4747 21.9438L35.8412 26.3103C36.1602 25.4881 36.4128 24.6418 36.5967 23.7793H39.1642C39.5466 23.7793 39.9134 23.6274 40.1838 23.357C40.4542 23.0865 40.6062 22.7198 40.6062 22.3373V18.2688C40.6062 17.8864 40.4542 17.5196 40.1838 17.2492C39.9134 16.9788 39.5466 16.8269 39.1642 16.8269Z" fill="#14C1DE"/>
</svg>
