<svg width="39" height="45" viewBox="0 0 39 45" fill="none" xmlns="http://www.w3.org/2000/svg">
<path d="M30.0696 3.68036L26.8554 0.466071C26.5489 0.170042 26.1404 0.00317296 25.7143 0H8.03571C7.60947 0 7.20069 0.169323 6.89929 0.470721C6.5979 0.772119 6.42857 1.1809 6.42857 1.60714C6.42857 2.03338 6.5979 2.44217 6.89929 2.74356C7.20069 3.04496 7.60947 3.21429 8.03571 3.21429H11.25V6.42857H8.03571C7.60947 6.42857 7.20069 6.5979 6.89929 6.89929C6.5979 7.20069 6.42857 7.60947 6.42857 8.03571V13.0179C4.61588 13.3931 2.9875 14.3806 1.81689 15.8146C0.64628 17.2486 0.00473896 19.0417 0 20.8929V40.1786C0.0038155 41.4561 0.513011 42.6803 1.41638 43.5836C2.31975 44.487 3.54388 44.9962 4.82143 45H20.8929C22.1704 44.9962 23.3945 44.487 24.2979 43.5836C25.2013 42.6803 25.7105 41.4561 25.7143 40.1786V20.8929C25.7095 19.0417 25.068 17.2486 23.8974 15.8146C22.7268 14.3806 21.0984 13.3931 19.2857 13.0179V8.03571C19.2857 7.60947 19.1164 7.20069 18.815 6.89929C18.5136 6.5979 18.1048 6.42857 17.6786 6.42857H14.4643V3.21429H25.0554L27.7875 5.9625C28.0922 6.26129 28.5019 6.42866 28.9286 6.42866C29.3553 6.42866 29.765 6.26129 30.0696 5.9625C30.3707 5.65906 30.5397 5.24891 30.5397 4.82143C30.5397 4.39395 30.3707 3.9838 30.0696 3.68036ZM19.2857 28.9286C19.2857 29.3548 19.1164 29.7636 18.815 30.065C18.5136 30.3664 18.1048 30.5357 17.6786 30.5357H14.4643V33.75C14.4643 34.1762 14.295 34.585 13.9936 34.8864C13.6922 35.1878 13.2834 35.3571 12.8571 35.3571C12.4309 35.3571 12.0221 35.1878 11.7207 34.8864C11.4193 34.585 11.25 34.1762 11.25 33.75V30.5357H8.03571C7.60947 30.5357 7.20069 30.3664 6.89929 30.065C6.5979 29.7636 6.42857 29.3548 6.42857 28.9286C6.42857 28.5023 6.5979 28.0935 6.89929 27.7921C7.20069 27.4907 7.60947 27.3214 8.03571 27.3214H11.25V24.1071C11.25 23.6809 11.4193 23.2721 11.7207 22.9707C12.0221 22.6693 12.4309 22.5 12.8571 22.5C13.2834 22.5 13.6922 22.6693 13.9936 22.9707C14.295 23.2721 14.4643 23.6809 14.4643 24.1071V27.3214H17.6786C18.1048 27.3214 18.5136 27.4907 18.815 27.7921C19.1164 28.0935 19.2857 28.5023 19.2857 28.9286ZM16.0714 9.64286V12.8571H9.64286V9.64286H16.0714Z" fill="#14C1DE"/>
<path d="M35.0726 11.9451C34.917 11.7421 34.7167 11.5777 34.4874 11.4645C34.258 11.3513 34.0057 11.2925 33.7499 11.2925C33.4941 11.2925 33.2418 11.3513 33.0124 11.4645C32.7831 11.5777 32.5828 11.7421 32.4272 11.9451C31.3745 13.4671 28.9285 17.2326 28.9285 19.2866C28.9285 20.5653 29.4364 21.7916 30.3406 22.6958C31.2448 23.6 32.4712 24.108 33.7499 24.108C35.0286 24.108 36.255 23.6 37.1592 22.6958C38.0634 21.7916 38.5713 20.5653 38.5713 19.2866C38.5713 17.2326 36.1253 13.4671 35.0726 11.9451Z" fill="#14C1DE"/>
</svg>
