<svg width="20" height="27" viewBox="0 0 20 27" fill="none" xmlns="http://www.w3.org/2000/svg">
<path d="M8.0734 19.7163L6.6853 20.1695C6.54365 20.1979 6.43034 20.2262 6.2887 20.2262C5.80711 20.2262 5.38218 19.9712 5.15555 19.5463L4.50399 18.2432L3.93742 18.1865L1.18955 24.0505C0.991246 24.5038 1.35952 24.9854 1.8411 24.9004L3.82411 24.5321C4.07907 24.4755 4.33402 24.5888 4.47567 24.8437L5.46717 26.6285C5.6938 27.0534 6.34535 27.0251 6.54365 26.6001L9.29153 20.7644C9.2632 20.7361 9.23487 20.7361 9.20654 20.7078L8.0734 19.7163Z" fill="#EF3340"/>
<path d="M16.0626 18.1865L15.496 18.2432L14.8445 19.5463C14.6178 19.9712 14.1929 20.2262 13.7113 20.2262C13.5697 20.2262 13.4564 20.1979 13.3147 20.1695L11.9266 19.7163L10.8218 20.6511C10.7935 20.6794 10.7651 20.7078 10.7368 20.7078L13.4847 26.5435C13.7113 26.9967 14.3345 27.0251 14.5612 26.5718L15.5244 24.7871C15.666 24.5605 15.921 24.4471 16.1759 24.4755L18.1589 24.8437C18.6405 24.9287 19.0371 24.4471 18.8105 23.9939L16.0626 18.1865Z" fill="#EF3340"/>
<path d="M19.915 10.1983C20.0283 10.085 20.0283 9.91502 19.915 9.8017L18.7252 8.4136C18.6402 8.32861 18.6402 8.2153 18.6686 8.10198L19.2351 6.37394C19.2918 6.2323 19.2068 6.06232 19.0935 6.00567L17.4788 5.18414C17.3938 5.12748 17.3088 5.04249 17.3088 4.92918L17.1671 3.11615C17.1671 2.9745 17.0255 2.83286 16.8839 2.83286L15.0425 2.69122C14.9292 2.69122 14.8442 2.60623 14.7875 2.52125L13.966 0.906516C13.9093 0.764873 13.7394 0.708215 13.5977 0.764873L11.8697 1.33144C11.7564 1.35977 11.6431 1.33144 11.5581 1.27479L10.17 0.0849859C10.0567 -0.0283286 9.88669 -0.0283286 9.77337 0.0849859L8.4136 1.27479C8.32861 1.35977 8.2153 1.35977 8.10198 1.33144L6.37394 0.764873C6.23229 0.708215 6.06232 0.793201 6.00567 0.906516L5.18414 2.52125C5.12748 2.60623 5.04249 2.69122 4.92918 2.69122L3.11615 2.83286C2.9745 2.83286 2.83286 2.9745 2.83286 3.11615L2.69122 4.92918C2.69122 5.04249 2.60623 5.12748 2.52125 5.18414L0.906515 6.00567C0.764872 6.06232 0.708215 6.2323 0.764872 6.37394L1.33144 8.10198C1.35977 8.2153 1.33145 8.32861 1.27479 8.4136L0.0849858 9.8017C-0.0283286 9.91502 -0.0283286 10.085 0.0849858 10.1983L1.27479 11.5864C1.35977 11.6714 1.35977 11.7847 1.33144 11.898L0.764872 13.6261C0.708215 13.7677 0.793201 13.9377 0.906515 13.9943L2.52125 14.8159C2.60623 14.8725 2.69122 14.9575 2.69122 15.0708L2.83286 16.8839C2.83286 17.0255 2.9745 17.1671 3.11615 17.1671L4.92918 17.3088C5.04249 17.3088 5.12748 17.3938 5.18414 17.4788L6.00567 19.0935C6.06232 19.2351 6.23229 19.2918 6.37394 19.2351L8.10198 18.6686C8.2153 18.6402 8.32861 18.6686 8.4136 18.7252L9.8017 19.915C9.91501 20.0283 10.085 20.0283 10.1983 19.915L11.5864 18.7252C11.6714 18.6402 11.7847 18.6402 11.898 18.6686L13.6261 19.2351C13.7677 19.2918 13.9377 19.2068 13.9943 19.0935L14.8159 17.4788C14.8725 17.3938 14.9575 17.3088 15.0708 17.3088L16.8839 17.1671C17.0255 17.1671 17.1671 17.0255 17.1671 16.8839L17.3088 15.0708C17.3088 14.9575 17.3938 14.8725 17.4788 14.8159L19.0935 13.9943C19.2351 13.9377 19.2918 13.7677 19.2351 13.6261L18.6686 11.898C18.6402 11.7847 18.6686 11.6714 18.7252 11.5864L19.915 10.1983ZM10 16.7422C6.28895 16.7422 3.25779 13.7111 3.25779 10C3.25779 6.28895 6.28895 3.25779 10 3.25779C13.711 3.25779 16.7422 6.28895 16.7422 10C16.7422 13.7111 13.711 16.7422 10 16.7422Z" fill="#EF3340"/>
<path d="M9.99998 4.22095C6.82718 4.22095 4.22095 6.79885 4.22095 9.99998C4.22095 13.2011 6.82718 15.779 9.99998 15.779C13.1728 15.779 15.779 13.1728 15.779 9.99998C15.779 6.82718 13.1728 4.22095 9.99998 4.22095ZM13.2861 9.06514L9.63171 12.7195C9.5184 12.8328 9.3201 12.8328 9.20678 12.7195L6.71387 10.2266C6.60055 10.1133 6.60055 9.915 6.71387 9.80168L7.76202 8.75353C7.87534 8.64021 8.07364 8.64021 8.18695 8.75353L9.43341 9.99998L11.8413 7.59205C11.9547 7.47874 12.153 7.47874 12.2663 7.59205L13.3144 8.64021C13.4277 8.75353 13.4277 8.95183 13.2861 9.06514Z" fill="#EF3340"/>
</svg>
