<svg width="27" height="27" viewBox="0 0 27 27" fill="none" xmlns="http://www.w3.org/2000/svg">
<path d="M16.4759 9.98531C16.4759 8.45403 17.5091 6.96114 18.0746 7.24692C18.7166 7.5711 17.5941 9.01707 16.4759 9.98531ZM9.43097 10.5441C9.43097 9.31138 10.6469 6.96114 11.3867 7.2128C12.2626 7.50712 10.6597 9.87015 9.43097 10.5441ZM8.198 19.3735C8.07261 19.3861 7.94599 19.3706 7.82729 19.3282C7.7086 19.2857 7.60079 19.2173 7.51168 19.1279C7.42257 19.0385 7.35438 18.9303 7.31205 18.8113C7.26971 18.6922 7.25429 18.5651 7.26689 18.4393C7.26689 16.8313 9.4905 15.2957 11.1656 14.4725C10.868 16.7161 10.1155 19.2839 8.198 19.3735ZM18.4487 14.1356C18.165 14.1206 17.8811 14.1629 17.614 14.26C17.3468 14.357 17.1018 14.5067 16.8933 14.7004C16.6848 14.894 16.5171 15.1277 16.4002 15.3874C16.2832 15.6472 16.2193 15.9278 16.2123 16.2128C16.2123 17.1469 16.7736 17.8934 17.5176 17.8934C17.5845 17.8993 17.652 17.8912 17.7155 17.8694C17.7791 17.8476 17.8374 17.8126 17.8867 17.7668C17.936 17.721 17.9752 17.6653 18.0017 17.6033C18.0282 17.5414 18.0414 17.4745 18.0405 17.4071C18.0405 16.9209 17.3985 16.8014 17.4453 16.0763C17.4727 15.8509 17.5829 15.6439 17.7543 15.4956C17.9256 15.3474 18.1459 15.2685 18.3722 15.2744C19.2693 15.2744 19.6859 16.1275 19.6859 17.0403C19.6921 17.3422 19.639 17.6424 19.5295 17.9237C19.42 18.2051 19.2564 18.462 19.0479 18.6798C18.8395 18.8977 18.5903 19.0722 18.3145 19.1934C18.0388 19.3146 17.742 19.3802 17.4411 19.3863C15.8765 19.3863 14.8901 17.8891 14.8901 16.281C14.8901 13.8882 16.4547 12.954 17.2752 12.728C17.2752 12.728 19.4011 13.1119 19.35 12.1649C19.3203 11.7384 18.7081 11.5934 18.2574 11.572C17.9193 11.5686 17.583 11.622 17.2625 11.7299C16.9993 11.5782 16.8021 11.3332 16.7098 11.0431C18.2404 9.88295 19.3203 8.76114 19.3203 7.49005C19.3279 7.31743 19.299 7.14514 19.2357 6.98445C19.1724 6.82376 19.076 6.67828 18.9528 6.55752C18.8296 6.43675 18.6824 6.34342 18.5208 6.28361C18.3592 6.2238 18.1869 6.19887 18.015 6.21043C16.4887 6.21043 15.3322 8.15546 15.3322 9.9128C15.3195 10.1993 15.3453 10.4862 15.4088 10.7659C14.4497 11.461 13.4564 12.1073 12.4326 12.7024C12.4486 12.3207 12.497 11.9412 12.5772 11.5678C12.9938 11.0943 13.6061 10.3564 13.6061 9.8147C13.615 9.75205 13.61 9.68819 13.5913 9.62774C13.5726 9.5673 13.5407 9.51179 13.4979 9.46524C13.4552 9.41869 13.4027 9.38226 13.3442 9.3586C13.2857 9.33494 13.2226 9.32464 13.1597 9.32844C12.4156 9.32844 11.8544 10.4502 11.7056 11.2351C11.3697 11.6616 10.698 12.1692 10.141 12.1692C9.9873 12.1617 9.84075 12.1018 9.72556 11.9994C9.61038 11.8971 9.53345 11.7583 9.5075 11.6062C10.9233 11.1199 12.675 9.17489 12.675 7.41754C12.6858 7.25024 12.6596 7.0826 12.5981 6.9267C12.5367 6.77079 12.4415 6.63048 12.3195 6.51587C12.1976 6.40125 12.0518 6.31518 11.8927 6.26385C11.7336 6.21251 11.5652 6.19718 11.3995 6.21896C9.72859 6.20617 8.31705 8.71422 8.31705 10.6678C7.72182 10.6678 7.49648 10.0322 7.49648 9.54598C7.53023 9.1678 7.59276 8.79278 7.68355 8.42418C7.68832 8.38199 7.6842 8.33928 7.67145 8.2988C7.6587 8.25832 7.63761 8.22098 7.60954 8.1892C7.58148 8.15743 7.54707 8.13193 7.50855 8.11436C7.47003 8.09679 7.42825 8.08754 7.38594 8.08721C6.82897 8.08721 6.49309 8.83366 6.49309 9.69527C6.47803 10.2093 6.66473 10.7087 7.013 11.086C7.36128 11.4634 7.84329 11.6884 8.35531 11.7128C8.42629 12.0847 8.61855 12.4223 8.90181 12.6725C9.18507 12.9227 9.54324 13.0713 9.91991 13.0948C10.4638 13.1042 10.9932 12.9181 11.4122 12.5701C11.374 12.8303 11.3357 13.0564 11.3017 13.2825C9.66056 14.1356 8.47011 14.7412 7.38594 15.7138C6.60833 16.3784 6.12391 17.3243 6.03817 18.3455C6.02217 18.6343 6.06709 18.9232 6.16997 19.1933C6.27285 19.4635 6.43139 19.7088 6.63523 19.9133C6.83907 20.1178 7.08363 20.2769 7.35292 20.3801C7.62221 20.4833 7.91017 20.5284 8.198 20.5123C9.89866 20.5123 11.2167 19.1303 11.8502 17.2237C12.1462 16.1094 12.3117 14.9642 12.3433 13.8114C13.5186 13.1553 14.6543 12.4303 15.7447 11.6403C15.8388 11.8128 15.966 11.965 16.1188 12.0882C15.3128 12.4741 14.6347 13.0849 14.1657 13.8474C13.6967 14.6099 13.4566 15.4919 13.4743 16.3877C13.4743 18.3327 14.7795 20.4995 17.3518 20.4995C18.2775 20.5079 19.1698 20.1531 19.8386 19.5109C20.5073 18.8687 20.8995 17.9898 20.9317 17.0616C20.9487 15.5559 20.0898 14.1356 18.4487 14.1356ZM24.8559 17.3474C24.8559 17.3474 24.8262 17.3773 24.7879 17.3474L24.7496 17.3005C25.0345 16.367 25.1848 15.3975 25.1961 14.4213C25.1961 12.7749 24.5243 11.764 23.6697 11.764C23.5455 11.7563 23.421 11.776 23.3052 11.8218C23.1894 11.8676 23.085 11.9384 22.9995 12.0291C22.9139 12.1198 22.8492 12.2283 22.81 12.3469C22.7708 12.4654 22.7581 12.5911 22.7726 12.7152C22.7726 13.7261 24.0013 13.7986 24.0013 16.0081C23.982 16.9252 23.8184 17.8336 23.5167 18.6995C22.1391 23.3915 17.7387 25.5242 13.453 25.5242C12.1618 25.5582 10.8752 25.3559 9.65631 24.927V24.8502L9.71158 24.8119C10.6387 25.1034 11.6056 25.2474 12.5772 25.2384C14.2183 25.2384 15.1877 24.5645 15.1877 23.7412C15.1888 23.6183 15.1655 23.4963 15.1191 23.3824C15.0727 23.2686 15.0042 23.1651 14.9175 23.0782C14.8308 22.9912 14.7277 22.9224 14.6142 22.8759C14.5008 22.8294 14.3792 22.806 14.2566 22.8071C13.2489 22.8071 13.1767 24.0867 11.0126 24.0867C10.0859 24.0673 9.1679 23.9033 8.29154 23.6005C3.64024 22.2142 1.45065 17.8379 1.4549 13.5C1.45641 12.2068 1.65866 10.9217 2.05438 9.691H2.12241L2.16067 9.73792C1.87746 10.6697 1.73417 11.6386 1.73551 12.6128C1.73551 14.2592 2.40727 15.2318 3.26185 15.2318C3.37977 15.2335 3.49684 15.2115 3.60617 15.1671C3.71551 15.1228 3.81489 15.0569 3.89848 14.9735C3.98207 14.89 4.04817 14.7906 4.09291 14.6812C4.13764 14.5717 4.16009 14.4543 4.15894 14.336C4.15894 13.3251 2.93022 13.2142 2.93022 11.0431C2.94956 10.1135 3.11308 9.19247 3.41491 8.31328C4.8307 3.67678 9.19288 1.48863 13.4785 1.48863C14.7594 1.47432 16.0333 1.67915 17.2455 2.09432V2.16256L17.1945 2.20095C16.2823 1.8717 15.3195 1.70567 14.3501 1.71043C12.7473 1.71043 11.7439 2.38437 11.7439 3.24171C11.7438 3.36264 11.7681 3.48234 11.8153 3.5936C11.8625 3.70485 11.9318 3.80536 12.0188 3.88906C12.1058 3.97276 12.2088 4.03792 12.3215 4.0806C12.4343 4.12329 12.5545 4.14263 12.675 4.13745C13.6826 4.13745 13.7549 2.90474 15.919 2.90474C16.8456 2.93283 17.7622 3.10552 18.6358 3.41659C23.3126 4.83697 25.4384 9.25166 25.4384 13.5128C25.4592 14.8143 25.2637 16.1103 24.8602 17.3474H24.8559ZM13.4573 0.63555C10.921 0.634707 8.44135 1.38848 6.33207 2.80153C4.22279 4.21458 2.57858 6.22344 1.60739 8.57403C0.636202 10.9246 0.381658 13.5114 0.875954 16.0071C1.37025 18.5029 2.59118 20.7955 4.38433 22.595C6.17748 24.3946 8.46231 25.6202 10.9498 26.117C13.4374 26.6137 16.0158 26.3592 18.3592 25.3856C20.7025 24.4121 22.7054 22.7632 24.1146 20.6476C25.5238 18.5319 26.276 16.0445 26.276 13.5C26.276 10.0889 24.9256 6.8174 22.5217 4.40497C20.1179 1.99254 16.8574 0.636681 13.4573 0.63555ZM13.4573 27C10.7957 27.0009 8.19358 26.2098 5.98012 24.7269C3.76666 23.244 2.04126 21.1359 1.02212 18.6692C0.00298123 16.2025 -0.264108 13.4879 0.254632 10.8689C0.773371 8.24988 2.05464 5.84401 3.93638 3.95557C5.81813 2.06714 8.21583 0.780963 10.8262 0.259717C13.4367 -0.261529 16.1425 0.00556699 18.6016 1.02722C21.0607 2.04888 23.1625 3.77921 24.6413 5.99936C26.1201 8.21952 26.9095 10.8298 26.9095 13.5C26.91 15.2726 26.5625 17.028 25.8867 18.6659C25.2109 20.3038 24.2201 21.792 22.9709 23.0457C21.7217 24.2993 20.2386 25.2938 18.6062 25.9723C16.9738 26.6508 15.2242 27 13.4573 27Z" fill="#086DB6"/>
</svg>
